<?xml version="1.0" encoding="utf-8"?>
<!-- Generator: Adobe Illustrator 24.0.3, SVG Export Plug-In . SVG Version: 6.00 Build 0)  -->
<svg version="1.1" id="heart" xmlns="http://www.w3.org/2000/svg" xmlns:xlink="http://www.w3.org/1999/xlink"
	 viewBox="0 0 512 512" class="svg-inline--fa fa-w-16" >

<g>
	 <path class="heart-svg" d="m369.647949,51.945892c-57.897369,0.519127 -94.607971,36.191765 -108.291992,52.376541c-3.208679,3.82206 -9.059784,3.916382 -12.409943,0.188812c-14.344604,-15.901855 -52.470901,-51.102596 -109.046921,-50.583496c-79.461395,0.707779 -128.912359,61.483421 -128.157358,144.059036c0.424667,51.432709 17.930704,84.934723 40.957529,118.814362c55.302055,81.395996 148.069824,124.429688 188.602676,140.142578c10.947113,4.246826 23.026642,4.152283 33.926666,-0.283142c40.296814,-16.420654 132.30957,-61.011536 186.149017,-143.398315c22.413391,-34.257141 39.305817,-68.089478 38.881317,-119.522339c-0.707947,-82.528381 -51.196777,-142.454575 -130.610992,-141.794037z"/>
  
</g>
</svg>